PathFileType	4	(X/Y/Z)	output.trc
DataRate	CameraRate	NumFrames	NumMarkers	Units	OrigDataRate	OrigDataStartFrame	OrigNumFrames
128	128	16	47	mm	128	126	1000
Frame#	Time	C7			LSHO			RSHO			CLAV			T10			LUPA			RELB			LELB			LFRA			RFRA			RWRB			RWRA			RFIN			LWRB			LWRA			LFIN			RASI			LASI			RPSI			LPSI			RANK			LANK			LMMA			LHEE			LTOE			RMMA			RHEE			RTOE			RMT5			LMT5			RKNE			LKNE			LMFC			RMFC			RFM2			LFM2			RTP2			RTP3			RTA3			LTP2			LTP3			LTA3			LBHD			RBHD			RFHD			RGTR			LGTR			
		X1	Y1	Z1	X2	Y2	Z2	X3	Y3	Z3	X4	Y4	Z4	X5	Y5	Z5	X6	Y6	Z6	X7	Y7	Z7	X8	Y8	Z8	X9	Y9	Z9	X10	Y10	Z10	X11	Y11	Z11	X12	Y12	Z12	X13	Y13	Z13	X14	Y14	Z14	X15	Y15	Z15	X16	Y16	Z16	X17	Y17	Z17	X18	Y18	Z18	X19	Y19	Z19	X20	Y20	Z20	X21	Y21	Z21	X22	Y22	Z22	X23	Y23	Z23	X24	Y24	Z24	X25	Y25	Z25	X26	Y26	Z26	X27	Y27	Z27	X28	Y28	Z28	X29	Y29	Z29	X30	Y30	Z30	X31	Y31	Z31	X32	Y32	Z32	X33	Y33	Z33	X34	Y34	Z34	X35	Y35	Z35	X36	Y36	Z36	X37	Y37	Z37	X38	Y38	Z38	X39	Y39	Z39	X40	Y40	Z40	X41	Y41	Z41	X42	Y42	Z42	X43	Y43	Z43	X44	Y44	Z44	X45	Y45	Z45	X46	Y46	Z46	X47	Y47	Z47	

126	0.97656	1546.66213	1524.28281	1521.26055	1462.63344	1267.45098	1403.76404	1126.66009	1132.32764	1034.33119	1029.59353	873.34096	893.86024	802.94266	893.64683	894.22692	795.89408	1041.39945	1041.08323	1123.54159	1128.50825	66.04278	67.10537	80.12446	27.16616	38.61209	52.43704	23.30415	35.18520	26.22378	25.26757	507.40866	515.89154	515.96364	526.09556	601.59278	645.83978	273.10629	325.35347	299.30827	289.01463	353.00816	309.55810	1430.73516	1830.73516	1460.73516	1430.73516	1830.73516	1600.73516	1630.73516	1830.73516	1600.73516	873.34096	893.64683	
127	0.98438	1546.66594	1524.25150	1521.06930	1462.53863	1267.35232	1403.73459	1126.51685	1132.29277	1034.27651	1029.47032	873.27449	893.81465	802.78373	893.57245	894.20632	795.88816	1041.33907	1041.05822	1123.49343	1128.45781	66.02886	67.09913	80.08824	27.16992	38.58804	52.44454	23.33690	35.09909	26.14050	25.24704	507.43295	515.86714	515.99834	526.03648	601.56140	645.82796	273.12601	325.32287	299.31900	289.09956	352.99456	309.55174	1430.66225	1830.66225	1460.66225	1430.66225	1830.66225	1600.66225	1630.66225	1830.66225	1600.66225	873.27449	893.57245	
128	0.99219	1546.60981	1524.23855	1521.07072	1462.51104	1267.36048	1403.71480	1126.51946	1132.27388	1034.21927	1029.39712	873.16630	893.71254	802.73683	893.58257	894.20099	795.88834	1041.31674	1041.07538	1123.48560	1128.43893	66.03684	67.08327	80.09468	27.15408	38.57685	52.42098	23.32015	35.14505	26.18596	25.30187	507.40474	515.86116	515.97561	526.03107	601.57483	645.79295	273.12888	325.33819	299.30122	289.09457	353.00470	309.56321	1430.63969	1830.63969	1460.63969	1430.63969	1830.63969	1600.63969	1630.63969	1830.63969	1600.63969	873.16630	893.58257	
129	1.00000	1546.62604	1524.19300	1521.10325	1462.44927	1267.34464	1403.70129	1126.41186	1132.21138	1034.24115	1029.33292	873.12804	893.66533	802.67850	893.57761	894.21490	795.87559	1041.30091	1041.04776	1123.45893	1128.45849	66.02815	67.07545	80.07894	27.15766	38.59509	52.45076	23.31504	35.07169	26.21083	25.27781	507.39120	515.86384	515.97312	526.01343	601.61454	645.81080	273.12284	325.35215	299.33619	289.09256	352.98590	309.57181	1430.64076	1830.64076	1460.64076	1430.64076	1830.64076	1600.64076	1630.64076	1830.64076	1600.64076	873.12804	893.57761	
130	1.00781	1546.63634	1524.23300	1521.04629	1462.43296	1267.30507	1403.67696	1126.39183	1132.17383	1034.20049	1029.28698	873.06873	893.61704	802.59490	893.56931	894.23824	795.87488	1041.29346	1041.05965	1123.44543	1128.46121	66.04178	67.11153	80.11146	27.17520	38.62822	52.45888	23.30412	35.11701	26.16597	25.26301	507.39290	515.86790	515.99864	526.05593	601.63671	645.82841	273.12490	325.33300	299.32248	289.08456	353.02704	309.54980	1430.63855	1830.63855	1460.63855	1430.63855	1830.63855	1600.63855	1630.63855	1830.63855	1600.63855	873.06873	893.56931	
131	1.01562	1546.63985	1524.23226	1520.99456	1462.40292	1267.31691	1403.66247	1126.37196	1132.17305	1034.17846	1029.23764	873.02764	893.52244	802.52878	893.55449	894.21894	795.85463	1041.31890	1041.05501	1123.45047	1128.42859	66.05450	67.09281	80.12205	27.23321	38.63074	52.43814	23.38089	35.14466	26.21594	25.32016	507.35531	515.84216	515.95061	526.07005	601.57306	645.77620	273.10550	325.34530	299.32242	289.11661	353.00130	309.56178	1430.62222	1830.62222	1460.62222	1430.62222	1830.62222	1600.62222	1630.62222	1830.62222	1600.62222	873.02764	893.55449	
132	1.02344	1546.65684	1524.15028	1520.93587	1462.39452	1267.23923	1403.62654	1126.35889	1132.15442	1034.12112	1029.17361	872.95724	893.46557	802.40099	893.49856	894.21048	795.82816	1041.32526	1041.04799	1123.46439	1128.43947	66.05551	67.11240	80.14167	27.20512	38.63245	52.47794	23.38916	35.14008	26.20386	25.26357	507.37951	515.86428	515.97706	526.10036	601.59148	645.68532	273.09555	325.35172	299.34033	289.11920	353.00459	309.56780	1430.58100	1830.58100	1460.58100	1430.58100	1830.58100	1600.58100	1630.58100	1830.58100	1600.58100	872.95724	893.49856	
133	1.03125	1546.66461	1524.16975	1520.89529	1462.33477	1267.23276	1403.59778	1126.29679	1132.14049	1034.10471	1029.10977	872.87685	893.38366	802.27845	893.53379	894.21434	795.79030	1041.32971	1041.06198	1123.38981	1128.39734	66.08529	67.08739	80.12341	27.17462	38.56521	52.42000	23.39115	35.14372	26.21320	25.29471	507.43465	515.86215	515.98326	526.10986	601.58414	645.70877	273.09411	325.36068	299.35369	289.09974	352.98985	309.57249	1430.57655	1830.57655	1460.57655	1430.57655	1830.57655	1600.57655	1630.57655	1830.57655	1600.57655	872.87685	893.53379	
134	1.03906	1546.67516	1524.16362	1520.87068	1462.26773	1267.20410	1403.58722	1126.28673	1132.08437	1034.10981	1029.04165	872.77981	893.32531	802.16395	893.52149	894.18384	795.75830	1041.31623	1041.08762	1123.40337	1128.38621	66.06995	67.09216	80.10141	27.17942	38.64266	52.42534	23.39354	35.14350	26.21382	25.34038	507.37864	515.92207	515.97333	526.09403	601.58694	645.83107	273.14207	325.38862	299.37565	289.12266	353.05499	309.60092	1430.56982	1830.56982	1460.56982	1430.56982	1830.56982	1600.56982	1630.56982	1830.56982	1600.56982	872.77981	893.52149	
135	1.04688	1546.64649	1524.16891	1520.78238	1462.26643	1267.16706	1403.61554	1126.25721	1132.12052	1034.08568	1029.01816	872.67100	893.22073	801.99240	893.50699	894.19536	795.73746	1041.31422	1041.12322	1123.40232	1128.36849	66.04515	67.05146	80.12529	27.17622	38.60019	52.41611	23.35165	35.18768	26.21539	25.27477	507.40846	515.91104	515.98518	526.06897	601.61915	645.72767	273.12698	325.38517	299.32056	289.12011	353.01041	309.56074	1430.53259	1830.53259	1460.53259	1430.53259	1830.53259	1600.53259	1630.53259	1830.53259	1600.53259	872.67100	893.50699	
136	1.05469	1546.62953	1524.17333	1520.78765	1462.21254	1267.10662	1403.57638	1126.22951	1132.11470	1034.11513	1028.91387	872.56479	893.17057	801.95349	893.51511	894.18122	795.72019	1041.31935	1041.07823	1123.38661	1128.36233	66.04690	67.11603	80.12349	27.16184	38.61845	52.44652	23.38006	35.18681	26.20513	25.24691	507.39557	515.86252	515.97359	526.07645	601.60919	645.72116	273.12732	325.35584	299.34702	289.10090	353.01683	309.57568	1430.53017	1830.53017	1460.53017	1430.53017	1830.53017	1600.53017	1630.53017	1830.53017	1600.53017	872.56479	893.51511	
137	1.06250	1546.63657	1524.18258	1520.73876	1462.18627	1267.09798	1403.54711	1126.19438	1132.10709	1034.08633	1028.86941	872.49627	893.09273	801.84821	893.49053	894.20050	795.68299	1041.35506	1041.09952	1123.34662	1128.31866	66.08958	67.07563	80.14204	27.24491	38.58692	52.42705	23.41155	35.11952	26.20478	25.30355	507.39202	515.86260	515.97556	526.07537	601.57496	645.81041	273.12165	325.36212	299.33473	289.08652	352.99956	309.54246	1430.51930	1830.51930	1460.51930	1430.51930	1830.51930	1600.51930	1630.51930	1830.51930	1600.51930	872.49627	893.49053	
138	1.07031	1546.67874	1524.12929	1520.67279	1462.16957	1267.05698	1403.55536	1126.15673	1132.07215	1034.08742	1028.82291	872.41097	893.08575	801.78315	893.50981	894.21342	795.66590	1041.36461	1041.10395	1123.34128	1128.33618	66.07892	67.06072	80.12621	27.20581	38.64015	52.44684	23.36198	35.13715	26.21567	25.28473	507.38876	515.92301	515.99175	526.11834	601.60641	645.71451	273.10535	325.34850	299.35751	289.07406	353.00607	309.58724	1430.49361	1830.49361	1460.49361	1430.49361	1830.49361	1600.49361	1630.49361	1830.49361	1600.49361	872.41097	893.50981	
139	1.07812	1546.66417	1524.13491	1520.67614	1462.12798	1267.02357	1403.53111	1126.08210	1132.05758	1034.05593	1028.76465	872.30266	892.99643	801.58876	893.44974	894.19692	795.59094	1041.35548	1041.14034	1123.35197	1128.31564	66.05799	67.08054	80.10958	27.17652	38.60010	52.43286	23.39481	35.11201	26.21448	25.27301	507.39688	515.89127	515.97860	526.08854	601.60095	645.72740	273.14912	325.36544	299.34778	289.09553	353.00200	309.58202	1430.49174	1830.49174	1460.49174	1430.49174	1830.49174	1600.49174	1630.49174	1830.49174	1600.49174	872.30266	893.44974	
140	1.08594	1546.68054	1524.10367	1520.55530	1462.04899	1266.99863	1403.50558	1126.04987	1132.01947	1034.03530	1028.70700	872.19726	892.89671	801.55850	893.45319	894.16772	795.50135	1041.36612	1041.13591	1123.31811	1128.27053	66.05423	67.06878	80.08134	27.17107	38.57237	52.45388	23.38139	35.15402	26.21445	25.27489	507.37891	515.92731	515.95750	526.08268	601.60796	645.81067	273.11750	325.35408	299.32037	289.11295	353.00987	309.56403	1430.44650	1830.44650	1460.44650	1430.44650	1830.44650	1600.44650	1630.44650	1830.44650	1600.44650	872.19726	893.45319	
141	1.09375	1546.59007	1524.12252	1520.54764	1461.99836	1266.95749	1403.47087	1125.98319	1132.01197	1033.98306	1028.61556	872.06702	892.82106	801.51311	893.38847	894.12397	795.44140	1041.36296	1041.10577	1123.29373	1128.24305	66.02401	67.08698	80.09443	27.16931	38.60285	52.42832	23.30749	35.07546	26.23204	25.25652	507.40174	515.97431	515.93647	526.06217	601.58508	645.71480	273.08956	325.34910	299.33798	289.09772	352.97944	309.57144	1430.42007	1830.42007	1460.42007	1430.42007	1830.42007	1600.42007	1630.42007	1830.42007	1600.42007	872.06702	893.38847	
